<svg width="32" height="32" viewBox="0 0 32 32" fill="none" xmlns="http://www.w3.org/2000/svg">
<path d="M22.3903 8.50873H10.1496C8.22911 8.50873 6.66667 10.0712 6.66667 11.9906V27.1848C6.66667 29.1052 8.22911 30.6667 10.1496 30.6667H22.3893C24.3098 30.6667 25.8722 29.1052 25.8722 27.1848V11.9906C25.8722 10.0712 24.3108 8.50873 22.3903 8.50873ZM10.1496 10.4081H22.3893C23.2618 10.4081 23.9718 11.1191 23.9718 11.9906V12.835H8.56707V11.9906C8.56707 11.1191 9.27708 10.4081 10.1496 10.4081ZM11.4242 20.9982V18.4409H14.9933V14.8748H17.5496V18.4409H21.1157V20.9982H17.5496V24.5653H14.9933V20.9982H11.4242ZM22.3903 28.7673H10.1496C9.27708 28.7673 8.56707 28.0572 8.56707 27.1848V26.6041H23.9718V27.1848C23.9728 28.0572 23.2628 28.7673 22.3903 28.7673Z" fill="#71717A"/>
<path d="M11.2958 7.66429H21.244C22.0443 7.66429 22.6911 7.01645 22.6911 6.21818V2.78042C22.6911 1.98115 22.0433 1.33331 21.244 1.33331H11.2958C10.4955 1.33331 9.84866 1.98115 9.84866 2.78042V6.21818C9.84866 7.01745 10.4955 7.66429 11.2958 7.66429ZM19.7969 3.00707H20.883V5.99154H19.7969V3.00707ZM17.0842 3.00707H18.1693V5.99154H17.0842V3.00707ZM14.3705 3.00707H15.4556V5.99154H14.3705V3.00707ZM11.6568 3.00707H12.7419V5.99154H11.6568V3.00707Z" fill="#71717A"/>
</svg>
