<svg width="32" height="32" viewBox="0 0 32 32" fill="none" xmlns="http://www.w3.org/2000/svg">
<g clip-path="url(#clip0_625_5900)">
<path d="M20.8876 5.18385C20.5322 3.92363 19.3739 3 18 3H14C12.6261 3 11.4678 3.92363 11.1124 5.18385M20.8876 5.18385C20.9608 5.44334 21 5.7171 21 6C21 6.55228 20.5523 7 20 7H12C11.4477 7 11 6.55228 11 6C11 5.7171 11.0392 5.44334 11.1124 5.18385M20.8876 5.18385C21.7492 5.24891 22.606 5.33103 23.4578 5.42988C24.9252 5.60018 26 6.86533 26 8.34265V26C26 27.6569 24.6569 29 23 29H9C7.34315 29 6 27.6569 6 26V8.34265C6 6.86533 7.07477 5.60018 8.54224 5.42988C9.39396 5.33103 10.2508 5.24891 11.1124 5.18385" stroke="#71717A" stroke-width="1.5" stroke-linecap="round" stroke-linejoin="round"/>
<path d="M16.8 12.8C16.8 12.3582 16.4418 12 16 12C15.5581 12 15.2 12.3582 15.2 12.8V16.5333H11.4666C11.0248 16.5333 10.6666 16.8915 10.6666 17.3333C10.6666 17.7752 11.0248 18.1333 11.4666 18.1333L15.2 18.1333V21.8667C15.2 22.3085 15.5581 22.6667 16 22.6667C16.4418 22.6667 16.8 22.3085 16.8 21.8667V18.1333L20.5333 18.1333C20.9751 18.1333 21.3333 17.7752 21.3333 17.3333C21.3333 16.8915 20.9751 16.5333 20.5333 16.5333H16.8V12.8Z" fill="#71717A"/>
</g>
<defs>
<clipPath id="clip0_625_5900">
<rect width="32" height="32" fill="white"/>
</clipPath>
</defs>
</svg>
