<svg width="32" height="32" viewBox="0 0 32 32" fill="none" xmlns="http://www.w3.org/2000/svg">
<g clip-path="url(#clip0_722_10953)">
<path d="M3 17.0125C3 19.1472 4.49788 21.0054 6.60995 21.3159C8.05809 21.5289 9.52201 21.6933 11 21.8075V28L16.578 22.422C16.8536 22.1464 17.2258 21.9897 17.6155 21.98C20.2496 21.9148 22.8441 21.6904 25.39 21.3161C27.5021 21.0056 29 19.1474 29 17.0126V8.98741C29 6.85261 27.5021 4.99444 25.39 4.68391C22.3254 4.23335 19.1901 4 16.0004 4C12.8103 4 9.67482 4.23339 6.60996 4.68403C4.49789 4.99458 3 6.85275 3 8.98752V17.0125Z" stroke="#71717A" stroke-width="1.5" stroke-linecap="round" stroke-linejoin="round"/>
<path d="M16.8 8.8C16.8 8.35817 16.4418 8 16 8C15.5582 8 15.2 8.35817 15.2 8.8V12.5333H11.4667C11.0248 12.5333 10.6667 12.8915 10.6667 13.3333C10.6667 13.7752 11.0248 14.1333 11.4667 14.1333L15.2 14.1333V17.8667C15.2 18.3085 15.5582 18.6667 16 18.6667C16.4418 18.6667 16.8 18.3085 16.8 17.8667V14.1333L20.5333 14.1333C20.9752 14.1333 21.3333 13.7752 21.3333 13.3333C21.3333 12.8915 20.9752 12.5333 20.5333 12.5333H16.8V8.8Z" fill="#71717A"/>
</g>
<defs>
<clipPath id="clip0_722_10953">
<rect width="32" height="32" fill="white"/>
</clipPath>
</defs>
</svg>
