<svg width="32" height="32" viewBox="0 0 32 32" fill="none" xmlns="http://www.w3.org/2000/svg">
<path d="M9.96727 30.6666H22.3235C24.1569 30.6666 25.6608 29.1627 25.6608 27.3294L25.6594 11.6731C25.6594 9.83981 24.1554 8.3359 22.3221 8.3359H20.526V6.97953H21.1863C21.553 6.97953 21.8824 6.68591 21.8824 6.28345L21.8838 2.02939C21.8838 1.66273 21.5902 1.33331 21.1878 1.33331H11.1404C10.7737 1.33331 10.4443 1.62693 10.4443 2.02939V6.28345C10.4443 6.65011 10.7379 6.97953 11.1404 6.97953H11.8007V8.3359H10.0046C8.17127 8.3359 6.66735 9.83981 6.66735 11.6731V27.3294C6.63011 29.1627 8.13394 30.6666 9.96727 30.6666ZM11.8364 2.72708H20.526V5.62316H11.799L11.8005 2.72708H11.8364ZM19.1697 6.97967V8.33604L13.1571 8.33747V6.9811L19.1697 6.97967ZM8.02383 11.6734C8.02383 10.6106 8.90324 9.72974 9.96745 9.72974H22.3252C23.3879 9.72974 24.2688 10.6092 24.2688 11.6734V27.3296C24.2688 28.3924 23.3894 29.2732 22.3252 29.2732H9.96745C8.90471 29.2732 8.02383 28.3938 8.02383 27.3296V11.6734Z" fill="#71717A"/>
<path d="M16.8 14.1333C16.8 13.6915 16.4418 13.3333 16 13.3333C15.5582 13.3333 15.2 13.6915 15.2 14.1333V17.8666H11.4667C11.0248 17.8666 10.6667 18.2248 10.6667 18.6666C10.6667 19.1085 11.0248 19.4666 11.4667 19.4666L15.2 19.4666V23.2C15.2 23.6418 15.5582 24 16 24C16.4418 24 16.8 23.6418 16.8 23.2V19.4666L20.5333 19.4666C20.9752 19.4666 21.3333 19.1085 21.3333 18.6666C21.3333 18.2248 20.9752 17.8666 20.5333 17.8666H16.8V14.1333Z" fill="#71717A"/>
</svg>
