<svg width="32" height="32" viewBox="0 0 32 32" fill="none" xmlns="http://www.w3.org/2000/svg">
<g clip-path="url(#clip0_572_13531)">
<path d="M31.9889 9.80974C32.1196 14.2794 31.1344 19.3061 26.99 22.0504C25.2468 23.0789 23.0877 23.0972 21.3037 22.5104C20.003 22.0927 18.8128 21.4428 17.7659 20.586C17.9307 20.3754 18.0958 20.1647 18.2606 19.9541C19.2572 20.6624 20.4164 21.1982 21.5922 21.4938C23.2265 21.9136 24.9528 21.7636 26.2843 20.8817C29.2245 18.7922 30.2293 14.5757 30.1402 10.8479C25.0636 11.117 21.3769 14.3102 17.9229 18.3229C17.7251 18.531 17.535 18.7295 17.3341 18.9369C14.9267 21.414 11.8259 23.3699 8.27489 23.9433C6.51468 24.2099 4.592 24.14 2.85364 23.2375C1.08282 22.3857 -0.0976532 20.2861 0.0100256 18.3816C-0.217242 14.7169 3.46102 11.8396 6.80853 11.9166C8.68972 11.9543 10.3805 12.7887 11.7855 13.7955C12.8697 14.5759 13.8348 15.4949 14.7137 16.4659C14.5215 16.6519 14.3291 16.8379 14.1369 17.024C13.2232 16.1447 12.2429 15.3304 11.1949 14.6719C9.83273 13.8156 8.30851 13.2067 6.80853 13.2641C4.03689 13.4614 1.5239 15.5656 1.77282 18.3816C1.68748 21.3314 5.05403 22.5437 7.94467 21.9322C10.9046 21.4017 13.6469 19.6748 15.7968 17.4487C15.9919 17.2469 16.1773 17.0531 16.371 16.8491C18.2513 14.9043 20.0526 12.6788 22.6052 11.0842C25.1577 9.47365 28.1979 8.97606 31.0136 8.93572L31.9326 8.92035L31.9889 9.80974Z" fill="#71717A"/>
</g>
<defs>
<clipPath id="clip0_572_13531">
<rect width="32" height="32" fill="white"/>
</clipPath>
</defs>
</svg>
