<svg width="32" height="32" viewBox="0 0 32 32" fill="none" xmlns="http://www.w3.org/2000/svg">
<g clip-path="url(#clip0_690_6562)">
<path d="M19.281 19.0907C19.1283 19.2862 18.9754 19.4817 18.8225 19.6773C19.8563 20.5187 21.0316 21.1464 22.326 21.5235C23.9264 22 25.8279 21.9343 27.3668 21.0251C31.1981 18.4813 32.1102 13.8207 31.9898 9.67766L31.9389 8.86945L31.1043 8.88324C28.3624 8.91737 25.3891 9.4416 22.9626 11.0965C20.5434 12.7304 18.8542 14.8915 16.9975 16.766C16.6805 17.093 16.3598 17.4034 16.0323 17.6994C13.1102 20.4225 9.08982 21.9459 5.28754 20.887C2.75406 20.3658 0.857471 18.022 1.97534 15.7702C2.99779 13.5424 5.94069 12.6134 8.60114 12.8658C9.98475 12.9737 11.3607 13.3893 12.5976 14.0709C13.6585 14.6538 14.6176 15.434 15.4407 16.352C15.6305 16.1923 15.8205 16.0326 16.0104 15.873C15.202 14.8436 14.2204 13.9334 13.0957 13.2265C11.783 12.3997 10.2878 11.8507 8.72787 11.6478C5.84491 11.241 2.16918 11.9754 0.539056 15.0695C-0.250063 16.5531 -0.181089 18.561 0.800755 19.9872C1.76313 21.437 3.29905 22.2476 4.80539 22.6714C9.25699 24.042 14.1762 22.1885 17.3616 19.1739C17.724 18.8463 18.0762 18.5045 18.4218 18.1463C22.0561 14.0349 25.6998 10.4672 31.1585 10.6063L30.273 9.81193C30.5342 13.4594 29.6823 17.8643 26.7262 19.9628C25.5413 20.7443 24.0228 20.9085 22.5683 20.5733C21.4061 20.3105 20.2627 19.7908 19.281 19.0907Z" fill="#71717A"/>
</g>
<defs>
<clipPath id="clip0_690_6562">
<rect width="32" height="32" fill="white"/>
</clipPath>
</defs>
</svg>
