<svg width="32" height="32" viewBox="0 0 32 32" fill="none" xmlns="http://www.w3.org/2000/svg">
<path d="M15.5649 15.0212C15.9686 15.0212 16.2961 15.348 16.2963 15.7516V18.7341H19.2787C19.6824 18.7343 20.0092 19.0618 20.0092 19.4655C20.0092 19.8693 19.6824 20.1968 19.2787 20.197H16.2963V23.1794C16.2961 23.5831 15.9686 23.9099 15.5649 23.9099C15.1611 23.9098 14.8336 23.5831 14.8334 23.1794V20.197H11.851C11.4473 20.1967 11.1205 19.8692 11.1205 19.4655C11.1206 19.0618 11.4473 18.7343 11.851 18.7341H14.8334V15.7516C14.8336 15.348 15.1611 15.0212 15.5649 15.0212Z" fill="#71717A" stroke="#71717A" stroke-width="0.2"/>
<path d="M22.2015 1.2337C23.6684 1.23392 24.8616 2.42697 24.8616 3.89386V4.7962C24.8616 6.26309 23.6683 7.45615 22.2015 7.45636H21.3841V8.43097C21.6875 8.5693 22.0987 8.77006 22.5013 9.01105C22.929 9.26706 23.3559 9.57179 23.6322 9.89972L24.4818 10.9095C24.8814 11.384 25.2346 12.0455 25.4876 12.7386C25.7406 13.4317 25.8968 14.1652 25.8968 14.7855V28.1068C25.8966 29.5736 24.7025 30.7669 23.2357 30.7669H7.89388C6.42701 30.7669 5.23397 29.5736 5.23372 28.1068V14.7855C5.23372 14.1651 5.38989 13.4317 5.6429 12.7386C5.89589 12.0455 6.24819 11.384 6.64778 10.9095L7.49837 9.89972C7.77454 9.57198 8.20078 9.26694 8.62825 9.01105C9.03061 8.77021 9.44209 8.57027 9.74544 8.43195V7.45636H8.92903C7.46199 7.45636 6.2679 6.26322 6.2679 4.7962V3.89386C6.2679 2.42684 7.46202 1.2337 8.92903 1.2337H22.2015ZM11.2083 8.91046C11.2083 9.20917 11.0265 9.4779 10.7493 9.58917C10.4341 9.71576 9.98926 9.92186 9.57747 10.1517C9.16186 10.3836 8.79331 10.6322 8.61653 10.8421L7.76692 11.8519C7.48567 12.1858 7.2163 12.697 7.0179 13.2405C6.81951 13.7841 6.69563 14.3489 6.69563 14.7855V28.1068C6.69588 28.7669 7.23364 29.304 7.89388 29.304H23.2357C23.8959 29.304 24.4337 28.7669 24.4339 28.1068V14.7855C24.4339 14.3488 24.31 13.7841 24.1116 13.2405C23.9133 12.6972 23.6448 12.1858 23.3636 11.8519L22.513 10.8421C22.3362 10.6322 21.9677 10.3836 21.5521 10.1517C21.1403 9.92185 20.6956 9.7158 20.3802 9.58917C20.1033 9.47779 19.9212 9.20904 19.9212 8.91046V7.45636H11.2083V8.91046ZM19.8812 5.99445H20.8089V2.69562H19.8812V5.99445ZM10.3206 5.99445H11.2484V2.69562H10.3206V5.99445ZM17.4915 5.99445H18.4183V2.69562H17.4915V5.99445ZM15.1009 5.99445H16.0286V2.69562H15.1009V5.99445ZM12.7113 5.99445H13.639V2.69562H12.7113V5.99445ZM8.85872 2.69952C8.23078 2.73593 7.73079 3.25699 7.73079 3.89386V4.7962C7.73079 5.43307 8.23078 5.95414 8.85872 5.99054V2.69952ZM22.2708 5.99054C22.8989 5.95424 23.3988 5.43315 23.3988 4.7962V3.89386C23.3988 3.2569 22.8989 2.73482 22.2708 2.69855V5.99054Z" fill="#71717A" stroke="#71717A" stroke-width="0.2"/>
</svg>
