<svg width="269" height="121" viewBox="0 0 269 121" fill="none" xmlns="http://www.w3.org/2000/svg">
<path d="M162.081 86.5068C160.797 88.152 159.512 89.7973 158.226 91.4425C166.917 98.523 176.797 103.804 187.678 106.978C201.131 110.987 217.116 110.435 230.052 102.784C262.259 81.3787 269.926 42.1627 268.915 7.30069L268.487 0.5L261.471 0.616074C238.422 0.903249 213.427 5.3144 193.029 19.2397C172.693 32.9877 158.493 51.1729 142.885 66.9456C140.22 69.6968 137.524 72.3092 134.771 74.7994C110.207 97.7135 76.4113 110.532 44.4484 101.622C23.1513 97.2358 7.20811 77.5143 16.6052 58.5662C25.2001 39.8208 49.939 32.0031 72.3033 34.1274C83.9343 35.035 95.5008 38.5328 105.898 44.2679C114.817 49.1724 122.879 55.7372 129.798 63.4623C131.394 62.1186 132.991 60.7748 134.588 59.4311C127.792 50.7692 119.541 43.111 110.086 37.1622C99.0512 30.2053 86.4815 25.5859 73.3687 23.8788C49.1338 20.4553 18.2347 26.6351 4.53144 52.67C-2.1021 65.1543 -1.52228 82.0501 6.73135 94.0502C14.8213 106.249 27.7327 113.07 40.3953 116.636C77.8166 128.17 119.169 112.573 145.946 87.2067C148.992 84.4507 151.953 81.5739 154.858 78.5601C185.409 43.965 216.039 13.9445 261.926 15.1152L254.483 8.43055C256.678 39.1219 249.517 76.1873 224.667 93.8454C214.707 100.421 201.941 101.803 189.715 98.9821C179.945 96.7707 170.333 92.3977 162.081 86.5068Z" fill="#3A5190"/>
</svg>
