<svg width="38" height="18" viewBox="0 0 38 18" fill="none" xmlns="http://www.w3.org/2000/svg">
<path d="M37.9868 1.05606C38.142 6.36329 36.9722 12.332 32.0506 15.5906C29.9806 16.8117 27.4166 16.8335 25.2982 16.1368C23.7535 15.6408 22.3402 14.8691 21.097 13.8517C21.2927 13.6016 21.4887 13.3515 21.6844 13.1014C22.8679 13.9424 24.2445 14.5787 25.6407 14.9297C27.5815 15.4281 29.6315 15.25 31.2126 14.2029C34.7041 11.7218 35.8972 6.71514 35.7915 2.28874C29.763 2.6083 25.385 6.39989 21.2835 11.1645C21.0486 11.4116 20.8229 11.6474 20.5843 11.8936C17.7255 14.8349 14.0433 17.1573 9.82643 17.8381C7.73618 18.1547 5.45299 18.0718 3.38869 17.0001C1.28585 15.9886 -0.115963 13.4956 0.0119054 11.2342C-0.257975 6.88274 4.10996 3.46627 8.08513 3.55778C10.319 3.6025 12.3268 4.59321 13.9953 5.78871C15.2828 6.71539 16.4289 7.80659 17.4725 8.9595C17.2442 9.18036 17.0158 9.4013 16.7875 9.62224C15.7026 8.57819 14.5384 7.61121 13.294 6.8293C11.6764 5.8126 9.86635 5.08962 8.08513 5.15777C4.79381 5.39199 1.80963 7.89052 2.10522 11.2342C2.00388 14.7368 6.00167 16.1762 9.43429 15.4502C12.9492 14.8202 16.2057 12.7697 18.7587 10.1265C18.9904 9.88684 19.2105 9.65677 19.4406 9.4146C21.6734 7.10527 23.8124 4.46273 26.8437 2.56933C29.8747 0.656985 33.485 0.0661486 36.8286 0.0182526L37.92 0L37.9868 1.05606Z" fill="#3A5190"/>
</svg>
