<svg width="1277" height="120" viewBox="0 0 1277 120" fill="none" xmlns="http://www.w3.org/2000/svg">
<path d="M161.426 86.0068C160.147 87.652 158.867 89.2973 157.587 90.9425C166.243 98.023 176.082 103.304 186.92 106.478C200.318 110.487 216.239 109.935 229.122 102.284C261.199 80.8787 268.835 41.6627 267.828 6.80069L267.402 0L260.414 0.116074C237.458 0.403249 212.565 4.8144 192.249 18.7397C171.995 32.4877 157.853 50.6729 142.308 66.4456C139.654 69.1968 136.968 71.8092 134.227 74.2994C109.762 97.2135 76.1025 110.032 44.2688 101.122C23.0577 96.7358 7.17899 77.0143 16.5381 58.0662C25.0983 39.3208 49.7372 31.5031 72.0111 33.6274C83.5951 34.535 95.1149 38.0328 105.47 43.7679C114.353 48.6724 122.383 55.2372 129.273 62.9623C130.863 61.6186 132.454 60.2748 134.044 58.9311C127.275 50.2692 119.058 42.611 109.641 36.6622C98.6509 29.7053 86.132 25.0859 73.0722 23.3788C48.9352 19.9553 18.161 26.1351 4.51313 52.17C-2.0936 64.6543 -1.51613 81.5501 6.70414 93.5502C14.7615 105.749 27.6206 112.57 40.232 116.136C77.5022 127.67 118.687 112.073 145.356 86.7067C148.39 83.9507 151.339 81.0739 154.233 78.0601C184.66 43.465 215.166 13.4445 260.868 14.6152L253.454 7.93055C255.641 38.6219 248.509 75.6873 223.759 93.3454C213.839 99.9214 201.125 101.303 188.948 98.4821C179.218 96.2707 169.645 91.8977 161.426 86.0068Z" fill="#3A5190"/>
<path d="M325.974 9.34399H370.312C388.594 9.34399 399.102 20.72 399.102 34.832C399.102 74.432 340.225 68.672 339.65 92.288V110H325.974V9.34399ZM339.65 21.44V71.408C355.628 60.608 385.139 56.144 385.139 37.28C385.139 28.64 378.805 21.44 366.857 21.44H339.65Z" fill="#1D2D44"/>
<path d="M428.647 39.44V54.416C433.829 43.184 443.186 37.712 457.581 37.712V49.232C438.147 48.944 428.647 58.304 428.647 75.152V109.856H415.115V39.44H428.647Z" fill="#1D2D44"/>
<path d="M523.445 88.112H536.545C532.946 103.664 517.975 112.304 500.701 112.304C480.115 112.16 463.273 99.056 463.273 74.576C463.273 52.4 478.388 37.28 500.845 37.28C519.703 37.28 535.681 51.968 535.681 69.392V72.992L479.971 87.968C484.29 96.608 492.495 101.072 501.42 101.072C510.634 101.072 520.278 96.752 523.445 88.112ZM477.812 81.2L522.15 69.824V68.672C522.582 58.592 511.929 48.368 500.989 48.368C487.025 48.368 477.092 58.88 477.092 74.72C477.092 77.024 477.38 79.184 477.812 81.2Z" fill="#1D2D44"/>
<path d="M602.229 39.44H617.057L585.099 110H574.302L542.489 39.44H557.316L579.773 90.56L602.229 39.44Z" fill="#1D2D44"/>
<path d="M683.177 88.112H696.277C692.678 103.664 677.707 112.304 660.433 112.304C639.847 112.16 623.005 99.056 623.005 74.576C623.005 52.4 638.12 37.28 660.577 37.28C679.434 37.28 695.413 51.968 695.413 69.392V72.992L639.703 87.968C644.022 96.608 652.227 101.072 661.152 101.072C670.365 101.072 680.01 96.752 683.177 88.112ZM637.544 81.2L681.882 69.824V68.672C682.314 58.592 671.661 48.368 660.72 48.368C646.757 48.368 636.824 58.88 636.824 74.72C636.824 77.024 637.112 79.184 637.544 81.2Z" fill="#1D2D44"/>
<path d="M713.351 39.44H727.027V52.256C732.353 42.32 742.862 37.424 753.082 37.424C766.902 37.424 780.289 46.352 780.289 63.488V110H766.614V67.808C766.614 55.424 757.545 49.088 748.044 49.088C737.679 49.088 727.027 56.432 727.027 71.552V110H713.351V39.44Z" fill="#1D2D44"/>
<path d="M841.259 39.44V51.248H821.97V84.944C821.97 93.872 824.273 99.2 834.349 99.2C836.653 99.2 839.388 98.912 842.555 98.336L844.858 110C838.956 111.152 833.918 111.872 829.599 111.872C814.916 111.872 808.582 104.816 808.582 90.704L808.438 51.248H796.202V39.44H802.248C806.135 39.44 808.438 37.568 808.438 32.528V20.144L821.97 18.272V39.44H841.259Z" fill="#1D2D44"/>
<path d="M868.208 24.032C863.889 24.032 860.29 20.288 860.29 15.68C860.29 11.072 863.889 7.32799 868.208 7.32799C872.526 7.32799 876.125 11.072 876.125 15.68C876.125 20.288 872.526 24.032 868.208 24.032ZM874.974 110H861.442V39.584H874.974V110Z" fill="#1D2D44"/>
<path d="M949.404 39.44H964.231L932.274 110H921.477L889.664 39.44H904.491L926.947 90.56L949.404 39.44Z" fill="#1D2D44"/>
<path d="M1030.35 88.112H1043.45C1039.85 103.664 1024.88 112.304 1007.61 112.304C987.022 112.16 970.179 99.056 970.179 74.576C970.179 52.4 985.295 37.28 1007.75 37.28C1026.61 37.28 1042.59 51.968 1042.59 69.392V72.992L986.878 87.968C991.197 96.608 999.402 101.072 1008.33 101.072C1017.54 101.072 1027.18 96.752 1030.35 88.112ZM984.719 81.2L1029.06 69.824V68.672C1029.49 58.592 1018.84 48.368 1007.9 48.368C993.932 48.368 983.999 58.88 983.999 74.72C983.999 77.024 984.287 79.184 984.719 81.2Z" fill="#1D2D44"/>
<path d="M1154.82 9.34399H1166.76V110H1152.94V36.416L1121.27 88.112H1116.67L1085 36.56V110H1071.32V9.34399H1083.27L1118.97 68.672L1154.82 9.34399Z" fill="#3A5190"/>
<path d="M1227.19 9.488C1253.97 9.488 1277 26.912 1277 59.744C1277 92.144 1254.11 110 1227.19 110H1187.32V9.488H1227.19ZM1225.46 97.472C1244.18 97.472 1262.89 84.656 1262.89 59.744C1262.89 33.968 1244.47 21.872 1225.46 21.872H1200.99V97.472H1225.46Z" fill="#3A5190"/>
</svg>
