<svg width="253" height="126" viewBox="0 0 253 126" fill="none" xmlns="http://www.w3.org/2000/svg">
<path d="M252.912 10.0404C253.945 45.4219 246.157 85.2134 213.389 106.937C199.607 115.078 182.537 115.224 168.433 110.579C158.149 107.272 148.738 102.127 140.462 95.3447C141.765 93.6774 143.07 92.0101 144.373 90.3428C152.252 95.9496 161.417 100.191 170.713 102.531C183.635 105.854 197.283 104.667 207.81 97.6857C231.056 81.1453 239 47.7676 238.296 18.2582C198.159 20.3886 169.011 45.666 141.703 77.4301C140.139 79.0774 138.636 80.649 137.048 82.2904C118.014 101.899 93.4986 117.382 65.4234 121.921C51.5067 124.031 36.3055 123.478 22.5616 116.334C8.56106 109.591 -0.772071 92.9708 0.079265 77.8945C-1.71757 48.8849 27.3637 26.1085 53.83 26.7186C68.7031 27.0166 82.0708 33.6214 93.1791 41.5914C101.751 47.7693 109.382 55.0439 116.33 62.73C114.81 64.2024 113.289 65.6753 111.77 67.1483C104.546 60.1879 96.7953 53.7414 88.5099 48.5287C77.74 41.7507 65.6891 36.9308 53.83 37.3851C31.9167 38.9466 12.0483 55.6034 14.0164 77.8945C13.3416 101.246 39.9585 110.842 62.8125 106.001C86.2146 101.802 107.896 88.1314 124.893 70.5098C126.436 68.9122 127.901 67.3785 129.433 65.764C144.299 50.3685 158.541 32.7515 178.723 20.1288C198.903 7.3799 222.94 3.44099 245.201 3.12168L252.467 3L252.912 10.0404Z" fill="url(#paint0_linear_281_5708)"/>
<defs>
<linearGradient id="paint0_linear_281_5708" x1="252.823" y1="2.99999" x2="15.8282" y2="109.417" gradientUnits="userSpaceOnUse">
<stop stop-color="#28B2AA"/>
<stop offset="1" stop-color="#0676BA"/>
</linearGradient>
</defs>
</svg>
