<svg width="832" height="120" viewBox="0 0 832 120" fill="none" xmlns="http://www.w3.org/2000/svg">
<path d="M252.912 7.04039C253.945 42.4219 246.157 82.2134 213.389 103.937C199.607 112.078 182.537 112.224 168.433 107.579C158.149 104.272 148.738 99.1275 140.462 92.3447C141.765 90.6774 143.07 89.0101 144.373 87.3428C152.252 92.9496 161.417 97.1911 170.713 99.5311C183.635 102.854 197.283 101.667 207.81 94.6857C231.056 78.1453 239 44.7676 238.296 15.2582C198.159 17.3886 169.011 42.666 141.703 74.4301C140.139 76.0774 138.636 77.649 137.048 79.2904C118.014 98.8993 93.4986 114.382 65.4234 118.921C51.5067 121.031 36.3055 120.478 22.5616 113.334C8.56107 106.591 -0.772071 89.9708 0.079265 74.8945C-1.71757 45.8849 27.3637 23.1085 53.83 23.7186C68.7031 24.0166 82.0709 30.6214 93.1791 38.5914C101.751 44.7693 109.382 52.044 116.33 59.73C114.81 61.2024 113.289 62.6753 111.77 64.1483C104.546 57.1879 96.7953 50.7414 88.5099 45.5287C77.74 38.7507 65.6891 33.9308 53.83 34.3851C31.9167 35.9466 12.0483 52.6034 14.0164 74.8945C13.3416 98.2455 39.9585 107.842 62.8125 103.001C86.2146 98.8016 107.896 85.1314 124.893 67.5098C126.436 65.9122 127.901 64.3785 129.433 62.764C144.299 47.3685 158.541 29.7515 178.723 17.1288C198.903 4.3799 222.94 0.44099 245.201 0.121684L252.467 0L252.912 7.04039Z" fill="url(#paint0_linear_572_6276)"/>
<path d="M324.124 48.008C324.124 50.976 323.424 53.776 322.024 56.408C320.624 59.04 318.384 61.196 315.304 62.876C312.224 64.5 308.276 65.312 303.46 65.312H292.876V89H283.3V30.62H303.46C307.94 30.62 311.72 31.404 314.8 32.972C317.936 34.484 320.26 36.556 321.772 39.188C323.34 41.82 324.124 44.76 324.124 48.008ZM303.46 57.5C307.1 57.5 309.816 56.688 311.608 55.064C313.4 53.384 314.296 51.032 314.296 48.008C314.296 41.624 310.684 38.432 303.46 38.432H292.876V57.5H303.46Z" fill="#1D2D44"/>
<path d="M341.153 49.436C342.553 47.084 344.401 45.264 346.697 43.976C349.049 42.632 351.821 41.96 355.013 41.96V51.872H352.577C348.825 51.872 345.969 52.824 344.009 54.728C342.105 56.632 341.153 59.936 341.153 64.64V89H331.577V42.716H341.153V49.436Z" fill="#1D2D44"/>
<path d="M404.555 64.724C404.555 66.46 404.443 68.028 404.219 69.428H368.855C369.135 73.124 370.507 76.092 372.971 78.332C375.435 80.572 378.459 81.692 382.043 81.692C387.195 81.692 390.835 79.536 392.963 75.224H403.295C401.895 79.48 399.347 82.98 395.651 85.724C392.011 88.412 387.475 89.756 382.043 89.756C377.619 89.756 373.643 88.776 370.115 86.816C366.643 84.8 363.899 82 361.883 78.416C359.923 74.776 358.943 70.576 358.943 65.816C358.943 61.056 359.895 56.884 361.799 53.3C363.759 49.66 366.475 46.86 369.947 44.9C373.475 42.94 377.507 41.96 382.043 41.96C386.411 41.96 390.303 42.912 393.719 44.816C397.135 46.72 399.795 49.408 401.699 52.88C403.603 56.296 404.555 60.244 404.555 64.724ZM394.559 61.7C394.503 58.172 393.243 55.344 390.779 53.216C388.315 51.088 385.263 50.024 381.623 50.024C378.319 50.024 375.491 51.088 373.139 53.216C370.787 55.288 369.387 58.116 368.939 61.7H394.559Z" fill="#1D2D44"/>
<path d="M430.191 80.432L443.295 42.716H453.459L435.819 89H424.395L406.839 42.716H417.087L430.191 80.432Z" fill="#1D2D44"/>
<path d="M501.438 64.724C501.438 66.46 501.326 68.028 501.102 69.428H465.737C466.017 73.124 467.389 76.092 469.853 78.332C472.317 80.572 475.341 81.692 478.926 81.692C484.078 81.692 487.717 79.536 489.845 75.224H500.177C498.777 79.48 496.229 82.98 492.534 85.724C488.893 88.412 484.358 89.756 478.926 89.756C474.501 89.756 470.526 88.776 466.997 86.816C463.526 84.8 460.781 82 458.766 78.416C456.806 74.776 455.826 70.576 455.826 65.816C455.826 61.056 456.777 56.884 458.681 53.3C460.641 49.66 463.357 46.86 466.829 44.9C470.357 42.94 474.389 41.96 478.926 41.96C483.294 41.96 487.185 42.912 490.602 44.816C494.017 46.72 496.678 49.408 498.582 52.88C500.486 56.296 501.438 60.244 501.438 64.724ZM491.441 61.7C491.385 58.172 490.125 55.344 487.661 53.216C485.198 51.088 482.146 50.024 478.505 50.024C475.202 50.024 472.374 51.088 470.022 53.216C467.67 55.288 466.27 58.116 465.822 61.7H491.441Z" fill="#1D2D44"/>
<path d="M532.533 41.96C536.173 41.96 539.421 42.716 542.277 44.228C545.189 45.74 547.457 47.98 549.081 50.948C550.705 53.916 551.517 57.5 551.517 61.7V89H542.025V63.128C542.025 58.984 540.989 55.82 538.917 53.636C536.845 51.396 534.017 50.276 530.433 50.276C526.849 50.276 523.993 51.396 521.865 53.636C519.793 55.82 518.757 58.984 518.757 63.128V89H509.181V42.716H518.757V48.008C520.325 46.104 522.313 44.62 524.721 43.556C527.185 42.492 529.789 41.96 532.533 41.96Z" fill="#1D2D44"/>
<path d="M573.224 50.528V76.148C573.224 77.884 573.616 79.144 574.4 79.928C575.24 80.656 576.64 81.02 578.6 81.02H584.48V89H576.92C572.608 89 569.304 87.992 567.008 85.976C564.712 83.96 563.564 80.684 563.564 76.148V50.528H558.104V42.716H563.564V31.208H573.224V42.716H584.48V50.528H573.224Z" fill="#1D2D44"/>
<path d="M596.498 36.584C594.762 36.584 593.306 35.996 592.13 34.82C590.954 33.644 590.366 32.188 590.366 30.452C590.366 28.716 590.954 27.26 592.13 26.084C593.306 24.908 594.762 24.32 596.498 24.32C598.178 24.32 599.606 24.908 600.782 26.084C601.958 27.26 602.546 28.716 602.546 30.452C602.546 32.188 601.958 33.644 600.782 34.82C599.606 35.996 598.178 36.584 596.498 36.584ZM601.202 42.716V89H591.626V42.716H601.202Z" fill="#1D2D44"/>
<path d="M629.986 80.432L643.09 42.716H653.254L635.614 89H624.19L606.634 42.716H616.882L629.986 80.432Z" fill="#1D2D44"/>
<path d="M701.233 64.724C701.233 66.46 701.121 68.028 700.897 69.428H665.533C665.813 73.124 667.185 76.092 669.649 78.332C672.113 80.572 675.137 81.692 678.721 81.692C683.873 81.692 687.513 79.536 689.641 75.224H699.973C698.573 79.48 696.025 82.98 692.329 85.724C688.689 88.412 684.153 89.756 678.721 89.756C674.297 89.756 670.321 88.776 666.793 86.816C663.321 84.8 660.577 82 658.561 78.416C656.601 74.776 655.621 70.576 655.621 65.816C655.621 61.056 656.573 56.884 658.477 53.3C660.437 49.66 663.153 46.86 666.625 44.9C670.153 42.94 674.185 41.96 678.721 41.96C683.089 41.96 686.981 42.912 690.397 44.816C693.813 46.72 696.473 49.408 698.377 52.88C700.281 56.296 701.233 60.244 701.233 64.724ZM691.237 61.7C691.181 58.172 689.921 55.344 687.457 53.216C684.993 51.088 681.941 50.024 678.301 50.024C674.997 50.024 672.169 51.088 669.817 53.216C667.465 55.288 666.065 58.116 665.617 61.7H691.237Z" fill="#1D2D44"/>
<path d="M770.488 30.81V89.19H760.912V49.206L743.104 89.19H736.468L718.576 49.206V89.19H709V30.81H719.332L739.828 76.59L760.24 30.81H770.488Z" fill="url(#paint1_linear_572_6276)"/>
<path d="M800.462 30.81C806.678 30.81 812.11 32.014 816.758 34.422C821.462 36.774 825.074 40.19 827.594 44.67C830.17 49.094 831.458 54.274 831.458 60.21C831.458 66.146 830.17 71.298 827.594 75.666C825.074 80.034 821.462 83.394 816.758 85.746C812.11 88.042 806.678 89.19 800.462 89.19H781.394V30.81H800.462ZM800.462 81.378C807.294 81.378 812.53 79.53 816.17 75.834C819.81 72.138 821.63 66.93 821.63 60.21C821.63 53.434 819.81 48.142 816.17 44.334C812.53 40.526 807.294 38.622 800.462 38.622H790.97V81.378H800.462Z" fill="url(#paint2_linear_572_6276)"/>
<defs>
<linearGradient id="paint0_linear_572_6276" x1="252.823" y1="-1.38746e-05" x2="15.8282" y2="106.417" gradientUnits="userSpaceOnUse">
<stop stop-color="#28B2AA"/>
<stop offset="1" stop-color="#0676BA"/>
</linearGradient>
<linearGradient id="paint1_linear_572_6276" x1="709" y1="89" x2="831" y2="31" gradientUnits="userSpaceOnUse">
<stop stop-color="#0778BA"/>
<stop offset="1" stop-color="#29B2AB"/>
</linearGradient>
<linearGradient id="paint2_linear_572_6276" x1="709" y1="89" x2="831" y2="31" gradientUnits="userSpaceOnUse">
<stop stop-color="#0778BA"/>
<stop offset="1" stop-color="#29B2AB"/>
</linearGradient>
</defs>
</svg>
